<?xml version="1.0" encoding="utf-8"?>
<!-- Generator: Adobe Illustrator 16.0.0, SVG Export Plug-In . SVG Version: 6.00 Build 0)  -->
<!DOCTYPE svg PUBLIC "-//W3C//DTD SVG 1.1//EN" "http://www.w3.org/Graphics/SVG/1.1/DTD/svg11.dtd">
<svg version="1.1" id="Calque_1" xmlns="http://www.w3.org/2000/svg" xmlns:xlink="http://www.w3.org/1999/xlink" x="0px" y="0px"
	 width="300.088px" height="136.392px" viewBox="0 0 300.088 136.392" enable-background="new 0 0 300.088 136.392"
	 xml:space="preserve">
<path fill="none" d="M21.371,138.392c0,0,42.613-53.998,128.941-53.998s128.939,53.998,128.939,53.998"/>
<text transform="matrix(0.7294 -0.3237 0.4057 0.914 65.4565 104.146)" font-family="'Duke-Fill'" font-size="79.3477">S</text>
<text transform="matrix(0.7695 -0.2114 0.2649 0.9643 89.6172 93.8452)" font-family="'Duke-Fill'" font-size="79.3477">H</text>
<text transform="matrix(0.7912 -0.1037 0.1299 0.9915 115.1729 87.2847)" font-family="'Duke-Fill'" font-size="79.3477">E</text>
<text transform="matrix(0.7979 -0.01 0.0125 0.9999 139.2334 84.5269)" font-family="'Duke-Fill'" font-size="79.3477">G</text>
<text transform="matrix(0.791 0.1055 -0.1322 0.9912 165.8516 84.6929)" font-family="'Duke-Fill'" font-size="79.3477">U</text>
<text transform="matrix(0.7689 0.2133 -0.2673 0.9636 191.9551 88.5884)" font-family="'Duke-Fill'" font-size="79.3477">E</text>
<text transform="matrix(0.7319 0.3179 -0.3984 0.9172 215.2432 95.394)" font-family="'Duke-Fill'" font-size="79.3477">Y</text>
<text transform="matrix(1 0 0 1 112.3926 115.9849)"><tspan x="0" y="0" font-family="'Code-Bold'" font-size="14" letter-spacing="14">LAN</tspan><tspan x="66.724" y="0" font-family="'Code-Bold'" font-size="14">D</tspan></text>
<circle cx="40.998" cy="84.41" r="4.941"/>
<circle cx="259.626" cy="84.378" r="4.941"/>
</svg>
